<?xml version="1.0" encoding="UTF-8" standalone="no"?><!DOCTYPE svg PUBLIC "-//W3C//DTD SVG 1.1//EN" "http://www.w3.org/Graphics/SVG/1.1/DTD/svg11.dtd"><svg width="100%" height="100%" viewBox="0 0 1000 1000" version="1.1" xmlns="http://www.w3.org/2000/svg" xmlns:xlink="http://www.w3.org/1999/xlink" xml:space="preserve" xmlns:serif="http://www.serif.com/" style="fill-rule:evenodd;clip-rule:evenodd;stroke-linecap:round;stroke-linejoin:round;stroke-miterlimit:1.5;">
  <style>
    @keyframes wave1 {
      0%, 100% { opacity: 0.4; }
      50% { opacity: 1; }
    }
    @keyframes wave2 {
      0%, 100% { opacity: 0.5; }
      50% { opacity: 1; }
    }
    @keyframes wave3 {
      0%, 100% { opacity: 0.6; }
      50% { opacity: 1; }
    }
    .wave-inner { animation: wave1 2s ease-in-out infinite; }
    .wave-middle { animation: wave2 2s ease-in-out 0.3s infinite; }
    .wave-outer { animation: wave3 2s ease-in-out 0.6s infinite; }
  </style>
  <path d="M1000,500c0,275.958 -224.042,500 -500,500c-275.958,0 -500,-224.042 -500,-500c0,-275.958 224.042,-500 500,-500c275.958,0 500,224.042 500,500Z" style="fill:#c0392b;stroke:#c0392b;stroke-width:1px;"/>
  <g>
    <path d="M709.474,318.21l0,363.58c0,0.828 -0.672,1.5 -1.5,1.5l-415.948,0c-0.828,0 -1.5,-0.672 -1.5,-1.5l0,-363.58c0,-0.828 0.672,-1.5 1.5,-1.5l415.948,0c0.828,0 1.5,0.672 1.5,1.5Z" style="fill:none;stroke:#fff;stroke-width:52.37px;stroke-miterlimit:4;"/>
    <path d="M290.526,384.789l209.474,151.869l209.474,-151.869" style="fill:none;fill-rule:nonzero;stroke:#fff;stroke-width:52.37px;stroke-miterlimit:4;"/>
    <path class="wave-inner" d="M211.973,369.079c-41.932,82.17 -41.932,179.673 0,261.843" style="fill:none;fill-rule:nonzero;stroke:#fff;stroke-width:52.37px;stroke-miterlimit:4;"/>
    <path class="wave-inner" d="M788.027,369.079c41.932,82.17 41.932,179.673 0,261.843" style="fill:none;fill-rule:nonzero;stroke:#fff;stroke-width:52.37px;stroke-miterlimit:4;"/>
    <path class="wave-outer" d="M159.605,264.342c-89.852,143.985 -89.852,327.332 0,471.317" style="fill:none;fill-rule:nonzero;stroke:#fff;stroke-width:52.37px;stroke-miterlimit:4;"/>
    <path class="wave-outer" d="M840.395,264.342c89.852,143.985 89.852,327.332 0,471.317" style="fill:none;fill-rule:nonzero;stroke:#fff;stroke-width:52.37px;stroke-miterlimit:4;"/>
  </g>
</svg>